<?xml version="1.0" encoding="utf-8"?>
<!-- Generator: Adobe Illustrator 27.2.0, SVG Export Plug-In . SVG Version: 6.00 Build 0)  -->
<svg version="1.1" id="Calque_1" xmlns="http://www.w3.org/2000/svg" xmlns:xlink="http://www.w3.org/1999/xlink" x="0px" y="0px"
	 viewBox="0 0 470 209.78" style="enable-background:new 0 0 470 209.78;" xml:space="preserve">
<style type="text/css">
	.st0{fill:#685BFB;stroke:#685BFB;stroke-width:3;stroke-miterlimit:10;}
	.st1{fill:#FFC00D;stroke:#FFC00D;stroke-width:3;stroke-miterlimit:10;}
</style>
<g>
	<path class="st0" d="M219.71,133.77c-9.5,0-17.86,5.48-21.88,10.59l6.79,6.73c3.09-3.53,8.47-7.22,14.93-7.22
		c8.09,0,13.36,4.89,13.36,11.4v2.82c-2.39-1.14-6.9-2.44-13.14-2.44c-13.68,0-23.02,6.73-23.02,16.5
		c0,10.21,8.85,15.91,20.14,15.91c7,0,13.03-2.93,16.23-7.82v6.73h10.53v-32.63C243.65,141.7,234.38,133.77,219.71,133.77z
		 M218.46,179.27c-6.13,0-10.86-2.77-10.86-7.49c0-5.65,5.65-7.93,12.43-7.93c5.65,0,10.64,1.36,12.87,2.5
		C232.91,173.46,226.93,179.27,218.46,179.27z"/>
	<rect x="259.45" y="110.53" class="st0" width="10.75" height="76.44"/>
	<path class="st0" d="M313.95,186.98h10.75v-46.74c0-2.97-2.41-5.38-5.38-5.38l0,0c-2.97,0-5.38,2.41-5.38,5.38v46.74H313.95z"/>
	<path class="st1" d="M319.32,110.75c-3.91,0-6.62,2.71-6.62,6.62c0,3.91,2.71,6.62,6.62,6.62s6.68-2.71,6.68-6.62
		C326.01,113.47,323.23,110.75,319.32,110.75z"/>
	<path class="st0" d="M364.33,133.77c-15.8,0-26.93,11.67-26.93,27.2c0,15.47,11.56,27.09,27.31,27.09
		c9.23,0,18.73-4.56,23.56-13.25l-7.93-5.75c-3.91,6.13-9.12,8.9-15.64,8.9c-9.01,0-15.69-6.13-16.18-13.95h40.45
		c0.33-1.68,0.43-3.37,0.43-5C389.42,145.06,379.54,133.77,364.33,133.77z M348.8,155.98c1.36-7.33,7.44-12.49,15.42-12.49
		c7.49,0,13.63,5.16,14.28,12.49H348.8z"/>
	<path class="st0" d="M422.57,156.03c-7.65-1.85-11.51-2.93-11.51-6.9c0-3.37,3.47-5.54,8.63-5.54c6.13,0,10.59,3.09,13.41,7.11
		l7.22-6.19c-3.47-5.7-10.91-10.75-20.63-10.75c-10.64,0-19.27,6.08-19.27,15.53c0,10.31,7.98,13.84,19.17,16.34
		c7.66,1.74,10.86,2.93,10.86,6.79c0,3.53-4.18,5.76-9.77,5.76c-6.62,0-11.62-3.53-14.55-8.63l-7.98,6.46
		c4.02,7.38,12.38,12.05,22.53,12.05c11.08,0,20.63-6.13,20.63-15.64C441.3,162.49,433.92,158.8,422.57,156.03z"/>
	<path class="st0" d="M44.75,101.15c0,7.17-2.5,10.37-8.2,10.37c-2.61,0-5.32-0.54-6.73-1.09l-1.14,8.9
		c1.96,0.92,5.65,1.63,8.63,1.63c12.32,0,18.19-7.33,18.19-19.22v-55.7H44.75V101.15z"/>
	<path class="st0" d="M50.12,21.94c-3.91,0-6.62,2.71-6.62,6.62s2.71,6.62,6.62,6.62c3.91,0,6.68-2.71,6.68-6.62
		S54.03,21.94,50.12,21.94z"/>
	<path class="st0" d="M95.83,44.95c-15.85,0-27.69,11.89-27.69,27.15s11.84,27.14,27.69,27.14s27.69-11.89,27.69-27.14
		S111.68,44.95,95.83,44.95z M95.83,89.15c-9.83,0-16.94-7.44-16.94-17.05S86,55.05,95.83,55.05s16.94,7.44,16.94,17.05
		S105.66,89.15,95.83,89.15z"/>
	<path class="st0" d="M156.1,87.09l-16.23-41.04h-11.83l22.48,52.88l-1.14,2.99c-2.33,6.08-5.16,9.61-12.16,9.61
		c-2.71,0-5.54-0.71-7-1.36l-1.14,8.9c0.92,0.49,4.02,1.9,8.63,1.9c12.7,0,17.21-6.52,21.39-16.18l24.97-58.74h-11.84L156.1,87.09z"
		/>
	<path class="st0" d="M231.71,83.61c0-9.94-7.38-13.63-18.73-16.4c-7.66-1.85-11.51-2.93-11.51-6.89c0-3.37,3.47-5.54,8.63-5.54
		c6.13,0,10.59,3.09,13.41,7.11l7.22-6.19c-3.47-5.7-10.91-10.75-20.63-10.75c-10.64,0-19.27,6.08-19.27,15.53
		c0,10.32,7.98,13.84,19.17,16.34c7.66,1.74,10.86,2.93,10.86,6.79c0,3.53-4.18,5.75-9.77,5.75c-6.62,0-11.62-3.53-14.55-8.63
		l-7.98,6.46c4.02,7.38,12.38,12.05,22.53,12.05C222.15,99.25,231.71,93.11,231.71,83.61z"/>
	<path class="st0" d="M266.67,89.53c-5.32,0-8.52-2.77-8.52-8.31V55.16h16.45v-9.12h-16.56V29.32h-10.48v16.72h-9.45v9.12h9.28
		v27.36c0,10.59,6.84,16.72,17.75,16.72c4.18,0,8.79-0.92,11.4-2.28l-1.41-9.23C272.58,88.82,269.17,89.53,266.67,89.53z"/>
	<path class="st1" d="M292.07,21.94c-3.91,0-6.62,2.71-6.62,6.62s2.71,6.62,6.62,6.62s6.68-2.71,6.68-6.62
		C298.76,24.65,295.98,21.94,292.07,21.94z"/>
	<path class="st0" d="M292.07,46.04L292.07,46.04c-2.97,0-5.38,2.41-5.38,5.37v46.74l0,0v88.82h10.75V94.15l0,0V51.42
		C297.45,48.45,295.04,46.04,292.07,46.04z"/>
	<path class="st0" d="M337.73,99.25c10.53,0,19.33-5.59,24.11-14.17l-8.09-5.7c-3.58,6.19-9.23,9.77-16.02,9.77
		c-9.66,0-16.78-7.49-16.78-17.1c0-9.55,6.95-16.99,16.99-16.99c6.51,0,12.38,3.8,15.64,9.83l8.31-5.65
		c-4.89-8.9-13.46-14.28-23.73-14.28c-15.74,0-28.07,11.84-28.07,27.09C310.1,87.25,321.93,99.25,337.73,99.25z"/>
	<polygon class="st0" points="422.74,98.16 399.45,67.87 421.88,46.04 407.1,46.04 384.35,68.68 384.35,21.72 373.49,21.72 
		373.49,98.16 384.35,98.16 384.35,82.69 391.64,75.41 409.11,98.16 	"/>
</g>
</svg>
