<?xml version="1.0" encoding="utf-8"?>
<!-- Generator: Adobe Illustrator 27.7.0, SVG Export Plug-In . SVG Version: 6.00 Build 0)  -->
<svg version="1.1" id="Calque_1" xmlns="http://www.w3.org/2000/svg" xmlns:xlink="http://www.w3.org/1999/xlink" x="0px" y="0px"
	 viewBox="0 0 470 209.8" style="enable-background:new 0 0 470 209.8;" xml:space="preserve">
<style type="text/css">
	.st0{fill:#FFFFFF;stroke:#000000;stroke-miterlimit:10;}
	.st1{fill:#685BFB;stroke:#685BFB;stroke-width:3;stroke-miterlimit:10;}
	.st2{fill:#FFC00D;stroke:#FFC00D;stroke-width:3;stroke-miterlimit:10;}
</style>
<rect x="-8" y="-10" class="st0" width="491" height="230"/>
<g>
	<path class="st1" d="M219.7,133.8c-9.5,0-17.9,5.5-21.9,10.6l6.8,6.7c3.1-3.5,8.5-7.2,14.9-7.2c8.1,0,13.4,4.9,13.4,11.4v2.8
		c-2.4-1.1-6.9-2.4-13.1-2.4c-13.7,0-23,6.7-23,16.5c0,10.2,8.9,15.9,20.1,15.9c7,0,13-2.9,16.2-7.8v6.7h10.5v-32.6
		C243.6,141.7,234.4,133.8,219.7,133.8z M218.5,179.3c-6.1,0-10.9-2.8-10.9-7.5c0-5.6,5.6-7.9,12.4-7.9c5.6,0,10.6,1.4,12.9,2.5
		C232.9,173.5,226.9,179.3,218.5,179.3z"/>
	<rect x="259.5" y="110.5" class="st1" width="10.8" height="76.4"/>
	<path class="st1" d="M314,187h10.8v-46.7c0-3-2.4-5.4-5.4-5.4l0,0c-3,0-5.4,2.4-5.4,5.4L314,187L314,187z"/>
	<path class="st2" d="M319.3,110.8c-3.9,0-6.6,2.7-6.6,6.6s2.7,6.6,6.6,6.6s6.7-2.7,6.7-6.6C326,113.5,323.2,110.8,319.3,110.8z"/>
	<path class="st1" d="M364.3,133.8c-15.8,0-26.9,11.7-26.9,27.2c0,15.5,11.6,27.1,27.3,27.1c9.2,0,18.7-4.6,23.6-13.2l-7.9-5.8
		c-3.9,6.1-9.1,8.9-15.6,8.9c-9,0-15.7-6.1-16.2-13.9H389c0.3-1.7,0.4-3.4,0.4-5C389.4,145.1,379.5,133.8,364.3,133.8z M348.8,156
		c1.4-7.3,7.4-12.5,15.4-12.5c7.5,0,13.6,5.2,14.3,12.5H348.8z"/>
	<path class="st1" d="M422.6,156c-7.6-1.9-11.5-2.9-11.5-6.9c0-3.4,3.5-5.5,8.6-5.5c6.1,0,10.6,3.1,13.4,7.1l7.2-6.2
		c-3.5-5.7-10.9-10.8-20.6-10.8c-10.6,0-19.3,6.1-19.3,15.5c0,10.3,8,13.8,19.2,16.3c7.7,1.7,10.9,2.9,10.9,6.8
		c0,3.5-4.2,5.8-9.8,5.8c-6.6,0-11.6-3.5-14.5-8.6l-8,6.5c4,7.4,12.4,12.1,22.5,12.1c11.1,0,20.6-6.1,20.6-15.6
		C441.3,162.5,433.9,158.8,422.6,156z"/>
	<path class="st1" d="M44.8,101.2c0,7.2-2.5,10.4-8.2,10.4c-2.6,0-5.3-0.5-6.7-1.1l-1.1,8.9c2,0.9,5.7,1.6,8.6,1.6
		c12.3,0,18.2-7.3,18.2-19.2V46H44.8V101.2z"/>
	<path class="st1" d="M50.1,21.9c-3.9,0-6.6,2.7-6.6,6.6s2.7,6.6,6.6,6.6s6.7-2.7,6.7-6.6S54,21.9,50.1,21.9z"/>
	<path class="st1" d="M95.8,45C80,45,68.1,56.8,68.1,72.1S80,99.2,95.8,99.2s27.7-11.9,27.7-27.1S111.7,45,95.8,45z M95.8,89.2
		c-9.8,0-16.9-7.4-16.9-17S86,55,95.8,55s16.9,7.4,16.9,17S105.7,89.2,95.8,89.2z"/>
	<path class="st1" d="M156.1,87.1l-16.2-41H128l22.5,52.9l-1.1,3c-2.3,6.1-5.2,9.6-12.2,9.6c-2.7,0-5.5-0.7-7-1.4l-1.1,8.9
		c0.9,0.5,4,1.9,8.6,1.9c12.7,0,17.2-6.5,21.4-16.2l25-58.7h-11.8L156.1,87.1z"/>
	<path class="st1" d="M231.7,83.6c0-9.9-7.4-13.6-18.7-16.4c-7.7-1.8-11.5-2.9-11.5-6.9c0-3.4,3.5-5.5,8.6-5.5
		c6.1,0,10.6,3.1,13.4,7.1l7.2-6.2C227.3,50,219.8,45,210.1,45c-10.6,0-19.3,6.1-19.3,15.5c0,10.3,8,13.8,19.2,16.3
		c7.7,1.7,10.9,2.9,10.9,6.8c0,3.5-4.2,5.8-9.8,5.8c-6.6,0-11.6-3.5-14.6-8.6l-8,6.5c4,7.4,12.4,12.1,22.5,12.1
		C222.1,99.2,231.7,93.1,231.7,83.6z"/>
	<path class="st1" d="M266.7,89.5c-5.3,0-8.5-2.8-8.5-8.3V55.2h16.5V46H258V29.3h-10.5V46h-9.4v9.1h9.3v27.4
		c0,10.6,6.8,16.7,17.8,16.7c4.2,0,8.8-0.9,11.4-2.3l-1.4-9.2C272.6,88.8,269.2,89.5,266.7,89.5z"/>
	<path class="st2" d="M292.1,21.9c-3.9,0-6.6,2.7-6.6,6.6s2.7,6.6,6.6,6.6s6.7-2.7,6.7-6.6C298.8,24.6,296,21.9,292.1,21.9z"/>
	<path class="st1" d="M292.1,46L292.1,46c-3,0-5.4,2.4-5.4,5.4v46.7l0,0V187h10.8V94.2l0,0V51.4C297.5,48.5,295,46,292.1,46z"/>
	<path class="st1" d="M337.7,99.2c10.5,0,19.3-5.6,24.1-14.2l-8.1-5.7c-3.6,6.2-9.2,9.8-16,9.8c-9.7,0-16.8-7.5-16.8-17.1
		c0-9.5,7-17,17-17c6.5,0,12.4,3.8,15.6,9.8l8.3-5.7C357,50.3,348.4,45,338.2,45c-15.7,0-28.1,11.8-28.1,27.1
		C310.1,87.2,321.9,99.2,337.7,99.2z"/>
	<polygon class="st1" points="422.7,98.2 399.5,67.9 421.9,46 407.1,46 384.4,68.7 384.4,21.7 373.5,21.7 373.5,98.2 384.4,98.2 
		384.4,82.7 391.6,75.4 409.1,98.2 	"/>
</g>
</svg>
